<svg xmlns="http://www.w3.org/2000/svg" viewBox="0 0 251.03 251.03"><defs><style>.cls-1{fill:#ff7400;}.cls-2{fill:#19195a;}</style></defs><title>Ресурс 2</title><g id="Слой_2" data-name="Слой 2"><g id="OBJECTS"><circle class="cls-1" cx="125.52" cy="125.52" r="125.52"/><path class="cls-2" d="M207.6,101.73C216.19,94,223.7,71,221.09,59.26c-1.25-5.59-4.43-7.28-6.88-7.71-15.52-2.72-31.74,5-40.66,10.24-15.51-9.42-35-13.41-57.84-11.86A63.76,63.76,0,0,0,84.88,60.54c-8.12-3.17-31.37-10.85-50-3.25-2,.82-4.55,2.73-5.25,7.22-1.69,10.92,9.19,31.6,19.3,40.85-13.07,29.25-14.61,60.58-3.66,76.59,12.6,18.42,36,30.1,65.86,32.88,4.3.4,8.65.6,13,.6,21.34,0,42.51-4.72,56.41-12.91,26.91-15.84,47.32-49.74,34.29-83.88C213.18,114.39,210.71,108.15,207.6,101.73ZM211,161a24.45,24.45,0,0,0-7.68-2.59c-6.51-1-12.74-.34-10.35,7.9,1.3,4.49,5,8,9.32,10.93a78.54,78.54,0,0,1-23.77,21.79,72.69,72.69,0,0,1-11.34,5.32c-.35-3.79-1.68-7.5-5.27-8.51-5.43-1.52-8.84,5.94-10.49,9.81-.53,1.24-1.07,2.39-1.62,3.47q-3.79.72-7.73,1.21c1.09-12.14,2.6-30-8.85-28.51-13.44,1.7-14.06,19.5-20.28,29.08q-3.07-.26-6.12-.67c.37-4.82.45-10.14-3-12.82-4.87-3.76-10.23,3.62-13.91,9.34-11.51-3.28-22.12-8.37-30.64-15.49.35-.44.68-.83,1-1.17,4.18-4.91,12.26-14.33,11.29-21.61-1.48-11.07-17.74-5.67-27.64.16-4.23-16.5-.92-40.76,9.33-63l.64-1.39-1.18-1C43.16,95.43,32,75.12,33.55,65.12c.33-2.15,1.25-3.5,2.8-4.13a44.37,44.37,0,0,1,16.72-3c13.59,0,26.57,4.7,31.3,6.62l1,.4.88-.6c1.54-1,3.11-2,4.68-2.89,3.6,5.38,8.43,11.14,12.85,7.73,3.76-2.9,3.36-8.87,2.94-14q2.57-.61,5.18-1c7.22,9.11,7.17,28.73,21.31,30.53,11.94,1.51,9.79-17.93,8.71-30q3.65.56,7.13,1.38a47.91,47.91,0,0,1,2.36,4.83c1.65,3.87,5.06,11.33,10.49,9.81,3.46-1,4.82-4.44,5.23-8.08,1.83.94,3.62,2,5.34,3l1,.66,1.06-.65c8.16-5,24.08-13,38.94-10.35.68.12,2.74.48,3.67,4.64,2.39,10.7-5.4,33.91-13.23,39.42l-1.41,1,.77,1.54c3.37,6.76,6,13.5,7.75,18A57.07,57.07,0,0,1,211,161ZM69.92,71.33c4.17,5.74-8.8,24.6-13.63,22S39.61,70,43.56,68.24,66.41,66.5,69.92,71.33ZM202.45,88.89c-3.76,3.25-18.82-10.93-16.23-16.79,2.18-4.94,18.86-8.55,22.69-7.76S206.22,85.64,202.45,88.89ZM146.94,143.6c1.86,1.86.46,4.52-1.2,6a7.29,7.29,0,0,1-6.77,1.65,7.72,7.72,0,0,1-4.9-4l0,.08a9.94,9.94,0,0,1-5.5,4.7,7.27,7.27,0,0,1-6.62-.83,8.84,8.84,0,0,1-2.41-2.72c-.54-.91-1.26-2.11-1-3.2a.63.63,0,0,1,.88-.42c.83.34,1.28,1.23,1.77,1.94a7.91,7.91,0,0,0,1.95,2.09,4.5,4.5,0,0,0,4.55.16c2.75-1.34,3.79-4.44,4.11-7.39-1.5-.75-2.94-1.78-4.27-2.54-4.3-2.48-1-8.56,3.46-6.77,1.22.48,2.56.87,3.74,1.46l.44-.36c.51-.43,1-.89,1.46-1.35,5-4.8,11.6,3.19,6.1,7.1-1.81,1.29-3.9,2.85-6.15,3.31.36,2,.85,3.94,2.69,4.82a3.55,3.55,0,0,0,3.82-.43,5.44,5.44,0,0,0,1.26-1.62,5.11,5.11,0,0,1,1.57-1.73A.85.85,0,0,1,146.94,143.6Zm-40.18-15c.61,6.42-1.67,16.68-10.12,13.82-3.28-1.11-5.44-4.24-6.28-7.49a17.16,17.16,0,0,1,.43-10.14c3.55-9.78,13.66-7.6,15.7,2A16.09,16.09,0,0,1,106.76,128.63Zm60.51,8.21a7.16,7.16,0,0,1-2-.26q-.38-.1-.78-.23c-3.28-1.11-5.44-4.24-6.28-7.49a17.16,17.16,0,0,1,.43-10.14c3.55-9.78,13.66-7.6,15.7,2a16.11,16.11,0,0,1,.27,1.79C175.12,128.17,173.42,136.78,167.27,136.84Z"/></g></g></svg>